<svg fill="#7289da" aria-label="Discord" role="img" version="1.1" viewBox="0 0 512 512" xmlns="http://www.w3.org/2000/svg">
 <rect width="512" height="512" rx="15%"/>
 <path d="m346 392-21-25c41-11 57-39 57-39-52 49-194 51-249 0 0 0 14 26 56 39l-23 25c-70-1-97-48-97-48 0-104 46-187 46-187 47-33 90-33 90-33l3 4c-58 16-83 42-83 42 68-46 208-42 263 0 1-1-33-28-86-42l5-4s43 0 90 33c0 0 46 83 46 187 0 0-27 47-97 48z" fill="#fff"/>
 <ellipse cx="196" cy="279" rx="33" ry="35"/>
 <ellipse cx="312" cy="279" rx="33" ry="35"/>
 <g fill="#000" stroke-width="1.5778">
  <path d="m63.306 509.92c-23.251-4.7662-42.179-18.586-53.2-38.841-9.4855-17.434-9.1244-8.9202-9.1244-215.13 0-206.21-0.36111-197.69 9.1244-215.13 9.0098-16.56 23.581-29.012 42.282-36.135l9.3396-3.557 187.76-0.45945c132.53-0.32431 190.78 0.056593 198.02 1.295 28.452 4.8671 52.171 26.272 60.982 55.034 1.74 5.6796 2.1312 42.254 2.1312 199.25 0 190.49-0.0308 192.39-3.2784 202.11-8.6879 26.001-30.14 45.348-56.472 50.929-8.6716 1.838-42.2 2.1928-195.86 2.0722-101.97-0.08-188.23-0.72768-191.71-1.4392zm114.95-129.91 11.993-13.21-7.4603-2.7576c-15.35-5.6741-41.785-23.015-39.13-25.669 0.45443-0.45443 1.7641-0.0478 2.9104 0.9035 4.6229 3.8366 24.839 12.825 37.45 16.651 24.535 7.443 40.802 9.5538 73.357 9.5187 41.249-0.0443 71.613-5.9747 98.614-19.26 15.829-7.7884 16.068-7.7967 7.949-0.2762-6.9193 6.409-30.182 18.91-35.189 18.91-5.2322 0-4.072 3.1645 5.2972 14.449 5.2907 6.372 10.148 12.146 10.795 12.832 1.9441 2.0615 30.045-2.0221 42.567-6.1856 20.171-6.707 39.256-19.557 50.913-34.279l6.0664-7.6618-0.92368-15.217c-3.3997-56.007-16.621-109.47-39.376-159.23-5.7255-12.52-6.4254-13.336-17.173-20.027-19.645-12.23-49.569-23.073-70.078-25.393-7.3958-0.83675-10.265-0.52297-13.049 1.427-2.6902 1.8842-3.0161 2.6862-1.3239 3.2575 1.2346 0.41687 8.635 2.8545 16.445 5.4169 14.986 4.9167 39.357 15.85 38.11 17.097-0.40483 0.40483-6.3946-1.0515-13.311-3.2363-32.565-10.287-76.156-14.184-116.31-10.397-29.108 2.7447-48.181 7.2927-82.047 19.565l-3.1556 1.1435 3.1556-2.617c5.5686-4.618 34.264-17.908 48.913-22.653 7.8102-2.53 14.119-5.1892 14.019-5.9093-0.75554-5.4422-18.109-3.9604-42.42 3.6222-14.09 4.3949-45.128 19.847-49.908 24.847-6.7393 7.0494-23.202 47.993-32.293 80.316-8.6078 30.605-14.836 71.177-14.836 96.645 0 12.168 0.26933 13.153 5.4523 19.941 16.705 21.878 52.703 38.306 88.629 40.448 2.3327 0.139 7.0136-3.8285 15.349-13.01z"/>
  <path d="m183.22 310.22c-21.337-11.648-25.655-40.874-8.4156-56.955 22.019-20.539 57.38 0.51493 52.748 31.405-1.2909 8.6081-5.7164 15.662-14.018 22.342-4.9704 4-7.6245 4.8915-15.778 5.2998-6.8699 0.34407-11.219-0.28216-14.536-2.0931z"/>
  <path d="m297.47 309.1c-10.027-5.2658-17.222-17.588-17.175-29.413 0.1066-26.912 27.548-43.562 48.713-29.556 16.203 10.723 19.647 34.695 7.3081 50.872-8.7401 11.459-25.709 14.996-38.846 8.0971z"/>
 </g>
</svg>
