<svg class="svg-inline--fa fa-envelope-square fa-w-14" width="448" height="448" aria-hidden="true" data-icon="envelope-square" data-prefix="fas" focusable="false" role="img" version="1.1" viewBox="0 0 448 448" xmlns="http://www.w3.org/2000/svg">
 <path d="m400 0h-352c-26.51 0-48 21.49-48 48v352c0 26.51 21.49 48 48 48h352c26.51 0 48-21.49 48-48v-352c0-26.51-21.49-48-48-48zm-221.88 230.1c-90.688-65.817-89.764-65.983-114.12-84.937v-25.167c0-13.255 10.745-24 24-24h272c13.255 0 24 10.745 24 24v25.167c-24.371 18.969-23.434 19.124-114.12 84.938-10.5 7.655-31.392 26.12-45.883 25.894-14.503 0.218-35.367-18.227-45.883-25.895zm205.88-44.329v142.22c0 13.255-10.745 24-24 24h-272c-13.255 0-24-10.745-24-24v-142.22c13.958 10.794 33.329 25.236 95.303 70.214 14.162 10.341 37.975 32.145 64.694 32.01 26.887 0.134 51.037-22.041 64.72-32.025 61.958-44.965 81.325-59.406 95.283-70.199z" fill="currentColor"/>
</svg>
